<svg width="18" height="272" viewBox="0 0 18 272" fill="none" xmlns="http://www.w3.org/2000/svg">
<path d="M2.51 22V21.535L4.25 21.325H4.565L6.335 21.535V22H2.51ZM2.615 11.455V10.975H4.79V11.635H4.625L2.615 11.455ZM4.055 22L4.1 10.975H4.61L4.715 16.435V22H4.055ZM8.51 22L4.355 11.545H4.25V10.975H5.945L9.56 20.14H9.2L9.29 19.915L12.785 10.975H13.475V11.545H13.175L12.995 11.995L9.125 22H8.51ZM11.36 22V21.535L13.55 21.325H13.91L16.13 21.535V22H11.36ZM12.8 22C12.845 20.305 12.83 18.58 12.845 17.11L12.905 10.975H14.66C14.615 12.67 14.615 14.395 14.615 16.12V16.87C14.615 18.61 14.615 20.32 14.66 22H12.8ZM13.715 11.635V10.975H16.1V11.455L13.91 11.635H13.715Z" fill="#5B5651"/>
<path d="M5.93 70V69.1C6.905 67.96 7.88 66.82 8.615 65.965C10.22 64.06 10.88 63.025 10.88 61.645C10.88 60.13 10.115 59.275 8.81 59.275C8.285 59.275 7.76 59.41 7.16 59.755L7.805 59.32L7.415 60.82C7.28 61.495 6.98 61.69 6.62 61.69C6.305 61.69 6.035 61.51 5.93 61.195C6.155 59.62 7.64 58.81 9.26 58.81C11.345 58.81 12.38 59.92 12.38 61.69C12.38 63.115 11.39 64.225 9.005 66.535C8.525 67.015 7.565 68.035 6.59 69.04L6.74 68.56V68.8H12.8V70H5.93Z" fill="#5B5651"/>
<path d="M6.575 118.255L6.47 117.865C9.785 116.695 11.285 114.445 11.285 111.19C11.285 108.49 10.385 107.275 9.215 107.275C8.12 107.275 7.22 108.25 7.22 110.17C7.22 111.97 8.15 113.02 9.485 113.02C10.28 113.02 10.955 112.66 11.51 111.955L11.825 112.03H11.69C11.21 113.005 10.235 113.635 8.945 113.635C7.1 113.635 5.75 112.375 5.75 110.335C5.75 108.115 7.265 106.81 9.215 106.81C11.405 106.81 12.77 108.49 12.77 111.28C12.77 114.61 10.55 117.295 6.575 118.255Z" fill="#5B5651"/>
<path d="M2.035 166V165.58L4.15 165.34H5.47L7.42 165.595V166.03L2.035 166ZM4.015 166C4.045 164.845 4.06 163.675 4.06 162.535V155.86L1.975 156.19V155.725L5.365 154.87L5.59 155.035L5.53 157.42V162.535C5.53 163.675 5.545 164.845 5.575 166H4.015ZM12.4412 166.24C10.1913 166.24 8.81125 164.53 8.81125 161.815C8.81125 158.305 11.3763 155.26 15.4263 154.81L15.4863 155.14C12.0813 155.89 10.3413 158.44 10.3413 161.62C10.3413 164.29 11.1363 165.76 12.4563 165.76C13.5363 165.76 14.3763 164.74 14.3763 162.775C14.3763 160.975 13.6413 160.015 12.4113 160.015C11.6163 160.015 10.8963 160.33 10.1613 161.155L9.87625 160.975H9.98125C10.7463 159.895 11.7363 159.355 12.9363 159.355C14.7663 159.355 15.8463 160.69 15.8463 162.67C15.8463 164.725 14.4363 166.24 12.4412 166.24Z" fill="#5B5651"/>
<path d="M0.93 214V213.1C1.905 211.96 2.88 210.82 3.615 209.965C5.22 208.06 5.88 207.025 5.88 205.645C5.88 204.13 5.115 203.275 3.81 203.275C3.285 203.275 2.76 203.41 2.16 203.755L2.805 203.32L2.415 204.82C2.28 205.495 1.98 205.69 1.62 205.69C1.305 205.69 1.035 205.51 0.93 205.195C1.155 203.62 2.64 202.81 4.26 202.81C6.345 202.81 7.38 203.92 7.38 205.69C7.38 207.115 6.39 208.225 4.005 210.535C3.525 211.015 2.565 212.035 1.59 213.04L1.74 212.56V212.8H7.8V214H0.93ZM12.455 214.24C10.625 214.24 9.50004 213.46 9.21504 212.005C9.33504 211.675 9.59004 211.495 9.90504 211.495C10.31 211.495 10.55 211.72 10.685 212.365L11.075 213.82L10.46 213.34C10.955 213.61 11.39 213.76 12.02 213.76C13.67 213.76 14.6 212.755 14.6 211.15C14.6 209.47 13.7 208.525 11.945 208.525H11.285V208H11.87C13.31 208 14.315 207.13 14.315 205.495C14.315 204.085 13.595 203.275 12.32 203.275C11.78 203.275 11.285 203.38 10.685 203.68L11.39 203.26L11 204.64C10.865 205.195 10.595 205.375 10.205 205.375C9.92004 205.375 9.68004 205.24 9.57504 204.985C9.80004 203.44 11.165 202.81 12.68 202.81C14.675 202.81 15.8 203.875 15.8 205.45C15.8 206.89 14.765 208.09 12.56 208.33V208.165C15.05 208.285 16.115 209.455 16.115 211.18C16.115 213.025 14.645 214.24 12.455 214.24Z" fill="#5B5651"/>
<path d="M3.915 262.24C2.085 262.24 0.96 261.46 0.675 260.005C0.795 259.675 1.05 259.495 1.365 259.495C1.77 259.495 2.01 259.72 2.145 260.365L2.535 261.82L1.92 261.34C2.415 261.61 2.85 261.76 3.48 261.76C5.13 261.76 6.06 260.755 6.06 259.15C6.06 257.47 5.16 256.525 3.405 256.525H2.745V256H3.33C4.77 256 5.775 255.13 5.775 253.495C5.775 252.085 5.055 251.275 3.78 251.275C3.24 251.275 2.745 251.38 2.145 251.68L2.85 251.26L2.46 252.64C2.325 253.195 2.055 253.375 1.665 253.375C1.38 253.375 1.14 253.24 1.035 252.985C1.26 251.44 2.625 250.81 4.14 250.81C6.135 250.81 7.26 251.875 7.26 253.45C7.26 254.89 6.225 256.09 4.02 256.33V256.165C6.51 256.285 7.575 257.455 7.575 259.18C7.575 261.025 6.105 262.24 3.915 262.24ZM12.7557 262.24C10.8957 262.24 9.20074 260.575 9.20074 256.495C9.20074 252.46 10.8957 250.81 12.7557 250.81C14.6007 250.81 16.3107 252.46 16.3107 256.495C16.3107 260.575 14.6007 262.24 12.7557 262.24ZM12.7557 261.76C13.8207 261.76 14.8707 260.53 14.8707 256.495C14.8707 252.52 13.8207 251.29 12.7557 251.29C11.6757 251.29 10.6407 252.52 10.6407 256.495C10.6407 260.53 11.6757 261.76 12.7557 261.76Z" fill="#5B5651"/>
</svg>
