<svg width="18" height="224" viewBox="0 0 18 224" fill="none" xmlns="http://www.w3.org/2000/svg">
<path d="M6.535 22V21.535L8.83 21.325H9.325L11.665 21.535V22H6.535ZM8.155 22C8.2 20.32 8.2 18.61 8.2 16.87V16.12C8.2 14.395 8.2 12.685 8.155 10.975H10.03C9.985 12.655 9.985 14.38 9.985 16.12V16.87C9.985 18.58 9.985 20.305 10.03 22H8.155ZM4.33 13.975L4.42 10.975H13.765L13.87 13.975H13.135L12.445 10.975L13.285 11.53H4.9L5.755 10.975L5.065 13.975H4.33Z" fill="#5B5651"/>
<path d="M8.915 70.24C7.085 70.24 5.96 69.46 5.675 68.005C5.795 67.675 6.05 67.495 6.365 67.495C6.77 67.495 7.01 67.72 7.145 68.365L7.535 69.82L6.92 69.34C7.415 69.61 7.85 69.76 8.48 69.76C10.13 69.76 11.06 68.755 11.06 67.15C11.06 65.47 10.16 64.525 8.405 64.525H7.745V64H8.33C9.77 64 10.775 63.13 10.775 61.495C10.775 60.085 10.055 59.275 8.78 59.275C8.24 59.275 7.745 59.38 7.145 59.68L7.85 59.26L7.46 60.64C7.325 61.195 7.055 61.375 6.665 61.375C6.38 61.375 6.14 61.24 6.035 60.985C6.26 59.44 7.625 58.81 9.14 58.81C11.135 58.81 12.26 59.875 12.26 61.45C12.26 62.89 11.225 64.09 9.02 64.33V64.165C11.51 64.285 12.575 65.455 12.575 67.18C12.575 69.025 11.105 70.24 8.915 70.24Z" fill="#5B5651"/>
<path d="M2.035 118V117.58L4.15 117.34H5.47L7.42 117.595V118.03L2.035 118ZM4.015 118C4.045 116.845 4.06 115.675 4.06 114.535V107.86L1.975 108.19V107.725L5.365 106.87L5.59 107.035L5.53 109.42V114.535C5.53 115.675 5.545 116.845 5.575 118H4.015ZM12.2763 118.24C10.4163 118.24 8.72125 116.575 8.72125 112.495C8.72125 108.46 10.4163 106.81 12.2763 106.81C14.1213 106.81 15.8313 108.46 15.8313 112.495C15.8313 116.575 14.1213 118.24 12.2763 118.24ZM12.2763 117.76C13.3413 117.76 14.3913 116.53 14.3913 112.495C14.3913 108.52 13.3413 107.29 12.2763 107.29C11.1963 107.29 10.1613 108.52 10.1613 112.495C10.1613 116.53 11.1963 117.76 12.2763 117.76Z" fill="#5B5651"/>
<path d="M2.035 166V165.58L4.15 165.34H5.47L7.42 165.595V166.03L2.035 166ZM4.015 166C4.045 164.845 4.06 163.675 4.06 162.535V155.86L1.975 156.19V155.725L5.365 154.87L5.59 155.035L5.53 157.42V162.535C5.53 163.675 5.545 164.845 5.575 166H4.015ZM10.3113 166L10.1913 165.895L14.9763 155.77L14.8113 156.475V156.235H8.87125V155.035H15.5013V155.8L11.5713 166H10.3113Z" fill="#5B5651"/>
<path d="M0.93 214V213.1C1.905 211.96 2.88 210.82 3.615 209.965C5.22 208.06 5.88 207.025 5.88 205.645C5.88 204.13 5.115 203.275 3.81 203.275C3.285 203.275 2.76 203.41 2.16 203.755L2.805 203.32L2.415 204.82C2.28 205.495 1.98 205.69 1.62 205.69C1.305 205.69 1.035 205.51 0.93 205.195C1.155 203.62 2.64 202.81 4.26 202.81C6.345 202.81 7.38 203.92 7.38 205.69C7.38 207.115 6.39 208.225 4.005 210.535C3.525 211.015 2.565 212.035 1.59 213.04L1.74 212.56V212.8H7.8V214H0.93ZM13.595 214.27V210.85V203.845H13.4L13.94 203.62L11.795 206.965L9.51504 210.505L9.65004 209.98V210.19H16.685V211.195H9.03504V210.385L13.925 202.855H14.93V214.27H13.595Z" fill="#5B5651"/>
</svg>
