<svg width="18" height="224" viewBox="0 0 18 224" fill="none" xmlns="http://www.w3.org/2000/svg">
<path d="M5.365 22.075L2.185 10.975H4.06L6.55 20.395H6.28L6.355 20.17L9.04 10.975H10.045L12.79 20.455H12.535L12.58 20.215L15.04 10.975H15.76L12.625 22.075H11.65L8.83 12.76H9.115L9.055 12.985L6.34 22.075H5.365ZM1.15 11.455V10.975H5.71V11.455L3.625 11.635H3.22L1.15 11.455ZM7.375 11.455V10.975H11.845V11.455L9.895 11.635H9.235L7.375 11.455ZM13.39 11.455V10.975H17.035V11.455L15.385 11.635H15.04L13.39 11.455Z" fill="#5B5651"/>
<path d="M10.055 70.27V66.85V66.625V59.83H9.875L10.415 59.62L8.255 62.965L5.99 66.49L6.11 65.965V66.19H13.145V67.18H5.51V66.385L10.4 58.855H11.39V70.27H10.055Z" fill="#5B5651"/>
<path d="M3.035 118V117.58L5.15 117.34H6.47L8.42 117.595V118.03L3.035 118ZM5.015 118C5.045 116.845 5.06 115.675 5.06 114.535V107.86L2.975 108.19V107.725L6.365 106.87L6.59 107.035L6.53 109.42V114.535C6.53 115.675 6.545 116.845 6.575 118H5.015ZM10.0663 118V117.58L12.1813 117.34H13.5013L15.4513 117.595V118.03L10.0663 118ZM12.0463 118C12.0763 116.845 12.0913 115.675 12.0913 114.535V107.86L10.0063 108.19V107.725L13.3963 106.87L13.6213 107.035L13.5613 109.42V114.535C13.5613 115.675 13.5763 116.845 13.6063 118H12.0463Z" fill="#5B5651"/>
<path d="M2.035 166V165.58L4.15 165.34H5.47L7.42 165.595V166.03L2.035 166ZM4.015 166C4.045 164.845 4.06 163.675 4.06 162.535V155.86L1.975 156.19V155.725L5.365 154.87L5.59 155.035L5.53 157.42V162.535C5.53 163.675 5.545 164.845 5.575 166H4.015ZM12.1863 166.24C10.0112 166.24 8.87125 165.175 8.87125 163.615C8.87125 162.235 9.81625 161.29 11.6313 160.585V160.51L11.9463 160.72C10.6563 161.515 10.1313 162.28 10.1313 163.45C10.1313 164.92 10.9263 165.76 12.2613 165.76C13.5963 165.76 14.3763 164.965 14.3763 163.735C14.3763 162.625 13.7463 161.74 11.6763 160.84C9.92125 160.09 9.17125 158.95 9.17125 157.57C9.17125 155.875 10.5513 154.81 12.3363 154.81C14.2413 154.81 15.2913 155.89 15.2913 157.33C15.2913 158.395 14.6313 159.445 12.7563 160.21V160.27L12.5013 160.09C13.6263 159.295 14.0913 158.485 14.0913 157.285C14.0913 156.19 13.4613 155.29 12.2913 155.29C11.3163 155.29 10.4463 155.995 10.4463 157.165C10.4463 158.185 10.9263 159.115 12.8313 159.94C14.8863 160.84 15.7263 161.845 15.7263 163.315C15.7263 165.085 14.3613 166.24 12.1863 166.24Z" fill="#5B5651"/>
<path d="M0.945 214V213.085C1.435 212.525 1.91 211.97 2.37 211.42C2.83 210.87 3.245 210.385 3.615 209.965C4.155 209.325 4.59 208.77 4.92 208.3C5.25 207.82 5.495 207.37 5.655 206.95C5.815 206.53 5.895 206.09 5.895 205.63C5.895 204.87 5.71 204.29 5.34 203.89C4.98 203.48 4.47 203.275 3.81 203.275C3.55 203.275 3.285 203.31 3.015 203.38C2.755 203.45 2.475 203.575 2.175 203.755L2.82 203.32L2.43 204.82C2.35 205.15 2.24 205.38 2.1 205.51C1.96 205.63 1.805 205.69 1.635 205.69C1.465 205.69 1.32 205.645 1.2 205.555C1.08 205.455 0.995 205.33 0.945 205.18C1.015 204.65 1.21 204.21 1.53 203.86C1.86 203.51 2.265 203.245 2.745 203.065C3.225 202.885 3.73 202.795 4.26 202.795C5.31 202.795 6.09 203.055 6.6 203.575C7.12 204.095 7.38 204.8 7.38 205.69C7.38 206.16 7.265 206.62 7.035 207.07C6.805 207.51 6.44 208.005 5.94 208.555C5.45 209.095 4.81 209.755 4.02 210.535C3.85 210.685 3.64 210.895 3.39 211.165C3.14 211.425 2.86 211.72 2.55 212.05C2.24 212.37 1.925 212.7 1.605 213.04L1.74 212.56V212.8H7.815V214H0.945ZM12.29 214.225C11.44 214.225 10.74 214.03 10.19 213.64C9.64004 213.25 9.30504 212.7 9.18504 211.99C9.24504 211.83 9.33504 211.71 9.45504 211.63C9.57504 211.55 9.71504 211.51 9.87504 211.51C10.085 211.51 10.25 211.575 10.37 211.705C10.49 211.825 10.58 212.035 10.64 212.335L11.015 213.76L10.505 213.34C10.765 213.48 11.01 213.585 11.24 213.655C11.47 213.715 11.75 213.745 12.08 213.745C12.91 213.745 13.55 213.49 14 212.98C14.46 212.46 14.69 211.725 14.69 210.775C14.69 209.855 14.46 209.175 14 208.735C13.55 208.285 12.95 208.06 12.2 208.06C11.88 208.06 11.575 208.085 11.285 208.135C11.005 208.185 10.735 208.27 10.475 208.39L10.07 208.21L10.43 203.02H15.935V204.235H10.685L10.985 203.41L10.67 208.105L10.175 207.955C10.585 207.755 10.985 207.615 11.375 207.535C11.765 207.445 12.175 207.4 12.605 207.4C13.725 207.4 14.61 207.68 15.26 208.24C15.92 208.8 16.25 209.62 16.25 210.7C16.25 211.42 16.085 212.045 15.755 212.575C15.425 213.095 14.965 213.5 14.375 213.79C13.785 214.08 13.09 214.225 12.29 214.225Z" fill="#5B5651"/>
</svg>
