<svg width="18" height="224" viewBox="0 0 18 224" fill="none" xmlns="http://www.w3.org/2000/svg">
<path d="M4.72 22V21.535L6.925 21.325H7.435L9.7 21.535V22H4.72ZM6.175 22C6.22 20.32 6.22 18.61 6.22 16.87V16.12C6.22 14.395 6.22 12.685 6.175 10.975H8.05C8.005 12.655 8.005 14.38 8.005 16.24V16.63C8.005 18.58 8.005 20.305 8.05 22H6.175ZM7.12 16.66V16.135H10.81V16.66H7.12ZM10.66 18.265L10.45 16.6V16.18L10.66 14.56H11.275V18.265H10.66ZM4.72 11.455V10.975H7.12V11.635H6.925L4.72 11.455ZM12.325 13.78L11.68 11.035L12.595 11.53H7.12V10.975H12.985L13.03 13.78H12.325Z" fill="#5B5651"/>
<path d="M9.41 70.24C7.16 70.24 5.78 68.53 5.78 65.815C5.78 62.305 8.345 59.26 12.395 58.81L12.455 59.14C9.05 59.89 7.31 62.44 7.31 65.62C7.31 68.29 8.105 69.76 9.425 69.76C10.505 69.76 11.345 68.74 11.345 66.775C11.345 64.975 10.61 64.015 9.38 64.015C8.585 64.015 7.865 64.33 7.13 65.155L6.845 64.975H6.95C7.715 63.895 8.705 63.355 9.905 63.355C11.735 63.355 12.815 64.69 12.815 66.67C12.815 68.725 11.405 70.24 9.41 70.24Z" fill="#5B5651"/>
<path d="M2.035 118V117.58L4.15 117.34H5.47L7.42 117.595V118.03L2.035 118ZM4.015 118C4.045 116.845 4.06 115.675 4.06 114.535V107.86L1.975 108.19V107.725L5.365 106.87L5.59 107.035L5.53 109.42V114.535C5.53 115.675 5.545 116.845 5.575 118H4.015ZM11.9463 118.24C10.1163 118.24 8.99125 117.46 8.70625 116.005C8.82625 115.675 9.08125 115.495 9.39625 115.495C9.80125 115.495 10.0413 115.72 10.1763 116.365L10.5663 117.82L9.95125 117.34C10.4463 117.61 10.8813 117.76 11.5113 117.76C13.1613 117.76 14.0913 116.755 14.0913 115.15C14.0913 113.47 13.1913 112.525 11.4363 112.525H10.7763V112H11.3613C12.8013 112 13.8063 111.13 13.8063 109.495C13.8063 108.085 13.0863 107.275 11.8113 107.275C11.2713 107.275 10.7763 107.38 10.1763 107.68L10.8813 107.26L10.4913 108.64C10.3563 109.195 10.0863 109.375 9.69625 109.375C9.41125 109.375 9.17125 109.24 9.06625 108.985C9.29125 107.44 10.6563 106.81 12.1713 106.81C14.1663 106.81 15.2913 107.875 15.2913 109.45C15.2913 110.89 14.2563 112.09 12.0513 112.33V112.165C14.5413 112.285 15.6062 113.455 15.6062 115.18C15.6062 117.025 14.1363 118.24 11.9463 118.24Z" fill="#5B5651"/>
<path d="M0.93 166V165.1C1.905 163.96 2.88 162.82 3.615 161.965C5.22 160.06 5.88 159.025 5.88 157.645C5.88 156.13 5.115 155.275 3.81 155.275C3.285 155.275 2.76 155.41 2.16 155.755L2.805 155.32L2.415 156.82C2.28 157.495 1.98 157.69 1.62 157.69C1.305 157.69 1.035 157.51 0.93 157.195C1.155 155.62 2.64 154.81 4.26 154.81C6.345 154.81 7.38 155.92 7.38 157.69C7.38 159.115 6.39 160.225 4.005 162.535C3.525 163.015 2.565 164.035 1.59 165.04L1.74 164.56V164.8H7.8V166H0.93ZM12.785 166.24C10.925 166.24 9.23004 164.575 9.23004 160.495C9.23004 156.46 10.925 154.81 12.785 154.81C14.63 154.81 16.34 156.46 16.34 160.495C16.34 164.575 14.63 166.24 12.785 166.24ZM12.785 165.76C13.85 165.76 14.9 164.53 14.9 160.495C14.9 156.52 13.85 155.29 12.785 155.29C11.705 155.29 10.67 156.52 10.67 160.495C10.67 164.53 11.705 165.76 12.785 165.76Z" fill="#5B5651"/>
<path d="M1.93 214V213.1C2.905 211.96 3.88 210.82 4.615 209.965C6.22 208.06 6.88 207.025 6.88 205.645C6.88 204.13 6.115 203.275 4.81 203.275C4.285 203.275 3.76 203.41 3.16 203.755L3.805 203.32L3.415 204.82C3.28 205.495 2.98 205.69 2.62 205.69C2.305 205.69 2.035 205.51 1.93 205.195C2.155 203.62 3.64 202.81 5.26 202.81C7.345 202.81 8.38 203.92 8.38 205.69C8.38 207.115 7.39 208.225 5.005 210.535C4.525 211.015 3.565 212.035 2.59 213.04L2.74 212.56V212.8H8.8V214H1.93ZM11.82 214L11.7 213.895L16.485 203.77L16.32 204.475V204.235H10.38V203.035H17.01V203.8L13.08 214H11.82Z" fill="#5B5651"/>
</svg>
