<svg width="18" height="272" viewBox="0 0 18 272" fill="none" xmlns="http://www.w3.org/2000/svg">
<path d="M9.065 22.27C7.835 22.27 6.575 21.91 5.78 21.4L5.87 19.015H6.59L7.22 21.7L6.395 21.34L6.275 20.815C7.25 21.505 7.88 21.685 8.915 21.685C10.49 21.685 11.465 20.965 11.465 19.63C11.465 18.565 10.985 18.01 9.515 17.38L8.84 17.095C6.965 16.285 5.99 15.325 5.99 13.69C5.99 11.755 7.58 10.705 9.71 10.705C10.865 10.705 11.78 11.02 12.545 11.545L12.455 13.795H11.72L11.12 11.23L11.975 11.62L12.065 12.16C11.255 11.515 10.73 11.29 9.875 11.29C8.51 11.29 7.55 11.95 7.55 13.195C7.55 14.29 8.21 14.89 9.35 15.37L10.07 15.685C12.335 16.66 13.085 17.515 13.085 19.105C13.085 21.025 11.555 22.27 9.065 22.27Z" fill="#D95858"/>
<path d="M6.035 70V69.58L8.15 69.34H9.47L11.42 69.595V70.03L6.035 70ZM8.015 70C8.045 68.845 8.06 67.675 8.06 66.535V59.86L5.975 60.19V59.725L9.365 58.87L9.59 59.035L9.53 61.42V66.535C9.53 67.675 9.545 68.845 9.575 70H8.015Z" fill="#D95858"/>
<path d="M9.155 118.24C6.98 118.24 5.84 117.175 5.84 115.615C5.84 114.235 6.785 113.29 8.6 112.585V112.51L8.915 112.72C7.625 113.515 7.1 114.28 7.1 115.45C7.1 116.92 7.895 117.76 9.23 117.76C10.565 117.76 11.345 116.965 11.345 115.735C11.345 114.625 10.715 113.74 8.645 112.84C6.89 112.09 6.14 110.95 6.14 109.57C6.14 107.875 7.52 106.81 9.305 106.81C11.21 106.81 12.26 107.89 12.26 109.33C12.26 110.395 11.6 111.445 9.725 112.21V112.27L9.47 112.09C10.595 111.295 11.06 110.485 11.06 109.285C11.06 108.19 10.43 107.29 9.26 107.29C8.285 107.29 7.415 107.995 7.415 109.165C7.415 110.185 7.895 111.115 9.8 111.94C11.855 112.84 12.695 113.845 12.695 115.315C12.695 117.085 11.33 118.24 9.155 118.24Z" fill="#D95858"/>
<path d="M2.035 166V165.58L4.15 165.34H5.47L7.42 165.595V166.03L2.035 166ZM4.015 166C4.045 164.845 4.06 163.675 4.06 162.535V155.86L1.975 156.19V155.725L5.365 154.87L5.59 155.035L5.53 157.42V162.535C5.53 163.675 5.545 164.845 5.575 166H4.015ZM11.7812 166.24C10.0713 166.24 8.91625 165.415 8.66125 163.99C8.78125 163.675 9.05125 163.51 9.36625 163.51C9.77125 163.51 10.0112 163.735 10.1163 164.35L10.5063 165.775L9.99625 165.355C10.5063 165.625 10.8963 165.76 11.5563 165.76C13.2213 165.76 14.1813 164.695 14.1813 162.775C14.1813 160.945 13.1913 160.06 11.6763 160.06C11.0463 160.06 10.4763 160.165 9.95125 160.39L9.56125 160.21L9.90625 155.035H15.4263V156.235H10.1613L10.4763 155.41L10.1463 160.12L9.66625 159.955C10.4613 159.565 11.2113 159.415 12.0963 159.415C14.3163 159.415 15.7412 160.555 15.7412 162.715C15.7412 164.875 14.1663 166.24 11.7812 166.24Z" fill="#D95858"/>
<path d="M0.93 214V213.1C1.905 211.96 2.88 210.82 3.615 209.965C5.22 208.06 5.88 207.025 5.88 205.645C5.88 204.13 5.115 203.275 3.81 203.275C3.285 203.275 2.76 203.41 2.16 203.755L2.805 203.32L2.415 204.82C2.28 205.495 1.98 205.69 1.62 205.69C1.305 205.69 1.035 205.51 0.93 205.195C1.155 203.62 2.64 202.81 4.26 202.81C6.345 202.81 7.38 203.92 7.38 205.69C7.38 207.115 6.39 208.225 4.005 210.535C3.525 211.015 2.565 212.035 1.59 213.04L1.74 212.56V212.8H7.8V214H0.93ZM9.47004 214V213.1C10.445 211.96 11.42 210.82 12.155 209.965C13.76 208.06 14.42 207.025 14.42 205.645C14.42 204.13 13.655 203.275 12.35 203.275C11.825 203.275 11.3 203.41 10.7 203.755L11.345 203.32L10.955 204.82C10.82 205.495 10.52 205.69 10.16 205.69C9.84504 205.69 9.57504 205.51 9.47004 205.195C9.69504 203.62 11.18 202.81 12.8 202.81C14.885 202.81 15.92 203.92 15.92 205.69C15.92 207.115 14.93 208.225 12.545 210.535C12.065 211.015 11.105 212.035 10.13 213.04L10.28 212.56V212.8H16.34V214H9.47004Z" fill="#D95858"/>
<path d="M0.93 262V261.1C1.905 259.96 2.88 258.82 3.615 257.965C5.22 256.06 5.88 255.025 5.88 253.645C5.88 252.13 5.115 251.275 3.81 251.275C3.285 251.275 2.76 251.41 2.16 251.755L2.805 251.32L2.415 252.82C2.28 253.495 1.98 253.69 1.62 253.69C1.305 253.69 1.035 253.51 0.93 253.195C1.155 251.62 2.64 250.81 4.26 250.81C6.345 250.81 7.38 251.92 7.38 253.69C7.38 255.115 6.39 256.225 4.005 258.535C3.525 259.015 2.565 260.035 1.59 261.04L1.74 260.56V260.8H7.8V262H0.93ZM10.115 262.255L10.01 261.865C13.325 260.695 14.825 258.445 14.825 255.19C14.825 252.49 13.925 251.275 12.755 251.275C11.66 251.275 10.76 252.25 10.76 254.17C10.76 255.97 11.69 257.02 13.025 257.02C13.82 257.02 14.495 256.66 15.05 255.955L15.365 256.03H15.23C14.75 257.005 13.775 257.635 12.485 257.635C10.64 257.635 9.29004 256.375 9.29004 254.335C9.29004 252.115 10.805 250.81 12.755 250.81C14.945 250.81 16.31 252.49 16.31 255.28C16.31 258.61 14.09 261.295 10.115 262.255Z" fill="#D95858"/>
</svg>
