<svg width="33" height="224" viewBox="0 0 33 224" fill="none" xmlns="http://www.w3.org/2000/svg">
<circle cx="16.5" cy="63.5" r="16.5" fill="#B99493"/>
<path d="M9.92754 93.27V91.58H6.71754V90.8L10.2075 86.29H10.8075V90.78H11.6875V91.58H10.8075V93.27H9.92754ZM7.62754 90.78H10.0175V87.65L7.62754 90.78ZM15.5737 92.1C15.147 92.1 14.767 91.9933 14.4337 91.78C14.1004 91.5667 13.837 91.2967 13.6437 90.97V94.13H12.7637V86.78H13.5437V87.76C13.7504 87.44 14.0204 87.1833 14.3537 86.99C14.687 86.79 15.0504 86.69 15.4437 86.69C15.8037 86.69 16.1337 86.7633 16.4337 86.91C16.7337 87.0567 16.9937 87.2567 17.2137 87.51C17.4337 87.7633 17.6037 88.0533 17.7237 88.38C17.8504 88.7 17.9137 89.0367 17.9137 89.39C17.9137 89.8833 17.8137 90.3367 17.6137 90.75C17.4204 91.1633 17.147 91.4933 16.7937 91.74C16.4404 91.98 16.0337 92.1 15.5737 92.1ZM15.3037 91.34C15.5637 91.34 15.797 91.2867 16.0037 91.18C16.217 91.0667 16.397 90.92 16.5437 90.74C16.697 90.5533 16.8137 90.3433 16.8937 90.11C16.9737 89.8767 17.0137 89.6367 17.0137 89.39C17.0137 89.13 16.967 88.8833 16.8737 88.65C16.787 88.4167 16.6604 88.21 16.4937 88.03C16.3337 87.85 16.1437 87.71 15.9237 87.61C15.7104 87.5033 15.477 87.45 15.2237 87.45C15.0637 87.45 14.897 87.48 14.7237 87.54C14.557 87.6 14.397 87.6867 14.2437 87.8C14.0904 87.9067 13.9604 88.03 13.8537 88.17C13.747 88.31 13.677 88.46 13.6437 88.62V90.11C13.7437 90.3367 13.877 90.5433 14.0437 90.73C14.2104 90.9167 14.4037 91.0667 14.6237 91.18C14.8437 91.2867 15.0704 91.34 15.3037 91.34ZM26.8642 92H25.9842V89.08C25.9842 88.5333 25.8942 88.13 25.7142 87.87C25.5408 87.61 25.2808 87.48 24.9342 87.48C24.5808 87.48 24.2608 87.61 23.9742 87.87C23.6875 88.1233 23.4842 88.4533 23.3642 88.86V92H22.4842V89.08C22.4842 88.5267 22.3975 88.1233 22.2242 87.87C22.0508 87.61 21.7908 87.48 21.4442 87.48C21.0975 87.48 20.7775 87.6067 20.4842 87.86C20.1975 88.1067 19.9942 88.4367 19.8742 88.85V92H18.9942V86.78H19.7942V87.9C20.0075 87.5133 20.2842 87.2167 20.6242 87.01C20.9642 86.7967 21.3475 86.69 21.7742 86.69C22.2075 86.69 22.5542 86.81 22.8142 87.05C23.0742 87.2833 23.2342 87.5867 23.2942 87.96C23.5275 87.5467 23.8108 87.2333 24.1442 87.02C24.4775 86.8 24.8575 86.69 25.2842 86.69C25.5842 86.69 25.8342 86.7467 26.0342 86.86C26.2408 86.9667 26.4042 87.12 26.5242 87.32C26.6442 87.5133 26.7308 87.7433 26.7842 88.01C26.8375 88.2767 26.8642 88.5667 26.8642 88.88V92Z" fill="#B99493"/>
<path d="M16.065 22.27C14.835 22.27 13.575 21.91 12.78 21.4L12.87 19.015H13.59L14.22 21.7L13.395 21.34L13.275 20.815C14.25 21.505 14.88 21.685 15.915 21.685C17.49 21.685 18.465 20.965 18.465 19.63C18.465 18.565 17.985 18.01 16.515 17.38L15.84 17.095C13.965 16.285 12.99 15.325 12.99 13.69C12.99 11.755 14.58 10.705 16.71 10.705C17.865 10.705 18.78 11.02 19.545 11.545L19.455 13.795H18.72L18.12 11.23L18.975 11.62L19.065 12.16C18.255 11.515 17.73 11.29 16.875 11.29C15.51 11.29 14.55 11.95 14.55 13.195C14.55 14.29 15.21 14.89 16.35 15.37L17.07 15.685C19.335 16.66 20.085 17.515 20.085 19.105C20.085 21.025 18.555 22.27 16.065 22.27Z" fill="#5B5651"/>
<path d="M14.28 70L14.16 69.895L18.945 59.77L18.78 60.475V60.235H12.84V59.035H19.47V59.8L15.54 70H14.28Z" fill="white"/>
<path d="M9.035 118V117.58L11.15 117.34H12.47L14.42 117.595V118.03L9.035 118ZM11.015 118C11.045 116.845 11.06 115.675 11.06 114.535V107.86L8.975 108.19V107.725L12.365 106.87L12.59 107.035L12.53 109.42V114.535C12.53 115.675 12.545 116.845 12.575 118H11.015ZM20.0863 118.27V114.85V107.845H19.8913L20.4313 107.62L18.2863 110.965L16.0063 114.505L16.1413 113.98V114.19H23.1763V115.195H15.5262V114.385L20.4163 106.855H21.4213V118.27H20.0863Z" fill="#5B5651"/>
<path d="M8.93 166V165.1C9.905 163.96 10.88 162.82 11.615 161.965C13.22 160.06 13.88 159.025 13.88 157.645C13.88 156.13 13.115 155.275 11.81 155.275C11.285 155.275 10.76 155.41 10.16 155.755L10.805 155.32L10.415 156.82C10.28 157.495 9.98 157.69 9.62 157.69C9.305 157.69 9.035 157.51 8.93 157.195C9.155 155.62 10.64 154.81 12.26 154.81C14.345 154.81 15.38 155.92 15.38 157.69C15.38 159.115 14.39 160.225 12.005 162.535C11.525 163.015 10.565 164.035 9.59 165.04L9.74 164.56V164.8H15.8V166H8.93ZM17.575 166V165.58L19.69 165.34H21.01L22.96 165.595V166.03L17.575 166ZM19.555 166C19.585 164.845 19.6 163.675 19.6 162.535V155.86L17.515 156.19V155.725L20.905 154.87L21.13 155.035L21.07 157.42V162.535C21.07 163.675 21.085 164.845 21.115 166H19.555Z" fill="#5B5651"/>
<path d="M7.93 214V213.1C8.905 211.96 9.88 210.82 10.615 209.965C12.22 208.06 12.88 207.025 12.88 205.645C12.88 204.13 12.115 203.275 10.81 203.275C10.285 203.275 9.76 203.41 9.16 203.755L9.805 203.32L9.415 204.82C9.28 205.495 8.98 205.69 8.62 205.69C8.305 205.69 8.035 205.51 7.93 205.195C8.155 203.62 9.64 202.81 11.26 202.81C13.345 202.81 14.38 203.92 14.38 205.69C14.38 207.115 13.39 208.225 11.005 210.535C10.525 211.015 9.565 212.035 8.59 213.04L8.74 212.56V212.8H14.8V214H7.93ZM19.695 214.24C17.52 214.24 16.38 213.175 16.38 211.615C16.38 210.235 17.325 209.29 19.14 208.585V208.51L19.455 208.72C18.165 209.515 17.64 210.28 17.64 211.45C17.64 212.92 18.435 213.76 19.77 213.76C21.105 213.76 21.885 212.965 21.885 211.735C21.885 210.625 21.255 209.74 19.185 208.84C17.43 208.09 16.68 206.95 16.68 205.57C16.68 203.875 18.06 202.81 19.845 202.81C21.75 202.81 22.8 203.89 22.8 205.33C22.8 206.395 22.14 207.445 20.265 208.21V208.27L20.01 208.09C21.135 207.295 21.6 206.485 21.6 205.285C21.6 204.19 20.97 203.29 19.8 203.29C18.825 203.29 17.955 203.995 17.955 205.165C17.955 206.185 18.435 207.115 20.34 207.94C22.395 208.84 23.235 209.845 23.235 211.315C23.235 213.085 21.87 214.24 19.695 214.24Z" fill="#5B5651"/>
</svg>
