<svg width="18" height="224" viewBox="0 0 18 224" fill="none" xmlns="http://www.w3.org/2000/svg">
<path d="M6.535 22V21.535L8.83 21.325H9.325L11.665 21.535V22H6.535ZM8.155 22C8.2 20.32 8.2 18.61 8.2 16.87V16.12C8.2 14.395 8.2 12.685 8.155 10.975H10.03C9.985 12.655 9.985 14.38 9.985 16.12V16.87C9.985 18.58 9.985 20.305 10.03 22H8.155ZM4.33 13.975L4.42 10.975H13.765L13.87 13.975H13.135L12.445 10.975L13.285 11.53H4.9L5.755 10.975L5.065 13.975H4.33Z" fill="#5B5651"/>
<path d="M8.75 70.24C7.04 70.24 5.885 69.415 5.63 67.99C5.75 67.675 6.02 67.51 6.335 67.51C6.74 67.51 6.98 67.735 7.085 68.35L7.475 69.775L6.965 69.355C7.475 69.625 7.865 69.76 8.525 69.76C10.19 69.76 11.15 68.695 11.15 66.775C11.15 64.945 10.16 64.06 8.645 64.06C8.015 64.06 7.445 64.165 6.92 64.39L6.53 64.21L6.875 59.035H12.395V60.235H7.13L7.445 59.41L7.115 64.12L6.635 63.955C7.43 63.565 8.18 63.415 9.065 63.415C11.285 63.415 12.71 64.555 12.71 66.715C12.71 68.875 11.135 70.24 8.75 70.24Z" fill="#5B5651"/>
<path d="M2.035 118V117.58L4.15 117.34H5.47L7.42 117.595V118.03L2.035 118ZM4.015 118C4.045 116.845 4.06 115.675 4.06 114.535V107.86L1.975 108.19V107.725L5.365 106.87L5.59 107.035L5.53 109.42V114.535C5.53 115.675 5.545 116.845 5.575 118H4.015ZM8.96125 118V117.1C9.93625 115.96 10.9113 114.82 11.6463 113.965C13.2513 112.06 13.9113 111.025 13.9113 109.645C13.9113 108.13 13.1463 107.275 11.8413 107.275C11.3163 107.275 10.7913 107.41 10.1913 107.755L10.8363 107.32L10.4463 108.82C10.3113 109.495 10.0112 109.69 9.65125 109.69C9.33625 109.69 9.06625 109.51 8.96125 109.195C9.18625 107.62 10.6713 106.81 12.2913 106.81C14.3763 106.81 15.4113 107.92 15.4113 109.69C15.4113 111.115 14.4213 112.225 12.0363 114.535C11.5563 115.015 10.5963 116.035 9.62125 117.04L9.77125 116.56V116.8H15.8313V118H8.96125Z" fill="#5B5651"/>
<path d="M2.035 166V165.58L4.15 165.34H5.47L7.42 165.595V166.03L2.035 166ZM4.015 166C4.045 164.845 4.06 163.675 4.06 162.535V155.86L1.975 156.19V155.725L5.365 154.87L5.59 155.035L5.53 157.42V162.535C5.53 163.675 5.545 164.845 5.575 166H4.015ZM9.60625 166.255L9.50125 165.865C12.8163 164.695 14.3163 162.445 14.3163 159.19C14.3163 156.49 13.4163 155.275 12.2463 155.275C11.1513 155.275 10.2513 156.25 10.2513 158.17C10.2513 159.97 11.1813 161.02 12.5163 161.02C13.3113 161.02 13.9863 160.66 14.5413 159.955L14.8563 160.03H14.7213C14.2413 161.005 13.2663 161.635 11.9763 161.635C10.1313 161.635 8.78125 160.375 8.78125 158.335C8.78125 156.115 10.2963 154.81 12.2463 154.81C14.4363 154.81 15.8013 156.49 15.8013 159.28C15.8013 162.61 13.5813 165.295 9.60625 166.255Z" fill="#5B5651"/>
<path d="M0.93 214V213.1C1.905 211.96 2.88 210.82 3.615 209.965C5.22 208.06 5.88 207.025 5.88 205.645C5.88 204.13 5.115 203.275 3.81 203.275C3.285 203.275 2.76 203.41 2.16 203.755L2.805 203.32L2.415 204.82C2.28 205.495 1.98 205.69 1.62 205.69C1.305 205.69 1.035 205.51 0.93 205.195C1.155 203.62 2.64 202.81 4.26 202.81C6.345 202.81 7.38 203.92 7.38 205.69C7.38 207.115 6.39 208.225 4.005 210.535C3.525 211.015 2.565 212.035 1.59 213.04L1.74 212.56V212.8H7.8V214H0.93ZM12.95 214.24C10.7 214.24 9.32004 212.53 9.32004 209.815C9.32004 206.305 11.885 203.26 15.935 202.81L15.995 203.14C12.59 203.89 10.85 206.44 10.85 209.62C10.85 212.29 11.645 213.76 12.965 213.76C14.045 213.76 14.885 212.74 14.885 210.775C14.885 208.975 14.15 208.015 12.92 208.015C12.125 208.015 11.405 208.33 10.67 209.155L10.385 208.975H10.49C11.255 207.895 12.245 207.355 13.445 207.355C15.275 207.355 16.355 208.69 16.355 210.67C16.355 212.725 14.945 214.24 12.95 214.24Z" fill="#5B5651"/>
</svg>
